<svg id="Capa_1" enable-background="new 0 0 493.6 493.6" height="512" viewBox="0 0 493.6 493.6" width="512" xmlns="http://www.w3.org/2000/svg"><path d="m486.166 84.386c-35.037 3.711-62.346 33.36-62.346 69.389v46.16c-3.81.75-7.54 1.88-11.11 3.36-7.08 2.93-13.6 7.25-19.12 12.78-11.05 11.05-17.26 26.03-17.26 41.66v43.15l-18.68-9.02c-32.96-15.9-69.06-24.16-105.66-24.16l-54.71-1.488v62.908.01l3.8 3.2s126.12 109.61 186.14 107.11c51.194-2.141 92.438-39.568 103.472-50.541 1.866-1.856 2.908-4.376 2.908-7.008v-290.788c0-3.998-3.458-7.143-7.434-6.722z" fill="#fed2a4"/><path d="m392.418 306.636c8.645 4.174 18.68-2.124 18.68-11.724v-22.406c0-15.63 6.21-30.61 17.26-41.66 5.52-5.53 12.04-9.85 19.12-12.78.816-.338 1.64-.658 2.471-.959 5.171-1.874 8.639-6.752 8.639-12.252v-36.308c0-25.878 14.09-48.464 35.012-60.512v-16.927c0-3.998-3.459-7.143-7.434-6.722-35.037 3.711-62.346 33.36-62.346 69.389v46.16c-3.81.75-7.54 1.88-11.11 3.36-7.08 2.93-13.6 7.25-19.12 12.78-11.05 11.05-17.26 26.03-17.26 41.66v41.87c5.434 2.152 10.805 4.482 16.088 7.031z" fill="#ffbd86"/><path d="m282.734 281.04c1.535-3.535 2.942-7.138 4.232-10.796-11.55-1.679-23.236-2.54-34.976-2.54l-54.71-1.488v62.908.01l3.8 3.2s9.007 7.827 23.345 19.246c25.507-17.455 45.858-41.879 58.309-70.54z" fill="#ffbd86"/><path d="m197.28 329.124c-19.37 11.24-41.87 17.68-65.87 17.68-72.57 0-131.41-58.83-131.41-131.4s58.84-131.41 131.41-131.41 131.4 58.84 131.4 131.41c0 18.58-3.86 36.27-10.82 52.3-11.23 25.85-30.52 47.38-54.71 61.42z" fill="#acacac"/><path d="m68.312 215.404c0-60.754 41.243-111.877 97.254-126.916-10.892-2.925-22.34-4.494-34.156-4.494-72.57 0-131.41 58.84-131.41 131.41s58.84 131.4 131.41 131.4c11.814 0 23.262-1.568 34.155-4.493-56.01-15.038-97.253-66.153-97.253-126.907z" fill="#9e9797"/><g fill="#acacac"><path d="m302.954 222.903c-4.143 0-7.5-3.357-7.5-7.5 0-47.243-20.39-92.216-55.94-123.389-3.115-2.731-3.426-7.47-.695-10.584 2.731-3.116 7.472-3.427 10.584-.694 38.8 34.021 61.052 83.104 61.052 134.667-.001 4.142-3.358 7.5-7.501 7.5z"/><path d="m225.883 79.7c-1.42 0-2.855-.402-4.129-1.244-5.635-3.725-11.551-7.13-17.585-10.121-3.712-1.839-5.229-6.339-3.39-10.051 1.839-3.71 6.342-5.228 10.05-3.389 6.589 3.265 13.047 6.982 19.196 11.047 3.456 2.284 4.405 6.938 2.121 10.393-1.442 2.182-3.829 3.365-6.263 3.365z"/><path d="m81.085 386.949c-.729 0-1.468-.106-2.2-.331-24.661-7.557-46.99-20.119-66.368-37.339-3.096-2.752-3.375-7.492-.624-10.589 2.752-3.096 7.491-3.377 10.589-.624 17.755 15.779 38.211 27.289 60.798 34.21 3.96 1.214 6.188 5.407 4.974 9.368-.99 3.229-3.96 5.305-7.169 5.305z"/><path d="m131.409 394.448c-8.563 0-17.174-.611-25.594-1.815-4.101-.587-6.948-4.387-6.362-8.487.587-4.102 4.395-6.942 8.487-6.362 7.719 1.105 15.614 1.665 23.469 1.665 4.143 0 7.5 3.357 7.5 7.5s-3.357 7.499-7.5 7.499z"/></g><circle cx="131.409" cy="215.403" fill="#838383" r="94.48"/><circle cx="131.409" cy="215.403" fill="#9c9c9c" r="35.604"/></svg>